<svg width="73" height="73" viewBox="0 0 73 73" fill="none" xmlns="http://www.w3.org/2000/svg">
	<path d="M64.1378 27.4918C61.2616 22.6884 58.4292 20.7466 56.648 19.9728C56.5458 19.929 56.4436 19.8852 56.356 19.856C56.3414 19.856 56.3414 19.856 56.3268 19.8414C56.2392 19.8122 56.1516 19.7684 56.064 19.7538C56.0494 19.7538 56.0494 19.7538 56.0348 19.7392C55.9472 19.71 55.8596 19.6808 55.7866 19.6662C55.7866 19.6662 55.7866 19.6662 55.772 19.6662C55.699 19.637 55.626 19.6224 55.553 19.6078C55.5384 19.6078 55.5384 19.6078 55.5238 19.6078C55.4654 19.5932 55.3924 19.5786 55.334 19.564H55.3194C55.261 19.5494 55.2026 19.5348 55.1588 19.5348C55.115 19.5202 55.0712 19.5202 55.0274 19.5056C55.0274 19.5056 55.0274 19.5056 55.0128 19.5056C54.969 19.5056 54.9398 19.491 54.9106 19.491C54.823 19.4764 54.7792 19.4764 54.7792 19.4764C52.5308 13.9138 42.5736 11.5778 42.5736 11.5778L36.3102 11.3734C34.8356 11.461 29.6088 12.6582 23.9294 15.1256C23.6958 15.2278 23.4476 15.33 23.214 15.4468C18.4106 17.6076 13.3736 20.659 10.0594 24.7032C9.85499 24.9368 9.66519 25.185 9.48999 25.4332C7.00799 28.7474 5.70859 32.6894 6.54079 37.303C6.71599 38.252 6.90579 39.128 7.09559 39.9456C10.5996 54.4434 18.1186 51.2606 18.4836 51.1C18.4982 51.1 18.4982 51.1 18.4982 51.1C18.4982 51.1 26.4698 57.524 32.9376 55.7574C35.8722 54.9544 37.2446 54.2828 37.887 53.7718C38.2812 53.4652 38.398 53.2316 38.4126 53.0564C38.4126 53.0272 38.4126 53.0126 38.4126 52.998C38.398 52.8812 38.3542 52.8228 38.3542 52.8228C41.2888 54.1952 42.9094 54.75 44.895 56.6918C46.8952 58.6336 49.9028 61.6412 49.9028 61.6412L52.6184 60.8966L50.4576 56.356C50.4576 56.356 53.9032 58.254 58.8672 53.0564C62.561 49.202 62.5026 45.625 62.2252 44.0482C62.2252 44.0044 62.2106 43.9752 62.2106 43.9314C62.2106 43.9168 62.2106 43.9168 62.2106 43.9022C62.1814 43.7854 62.1668 43.6832 62.1376 43.5956C62.1376 43.581 62.1376 43.5664 62.123 43.5664C62.123 43.5372 62.1084 43.5226 62.1084 43.4934C62.1084 43.4788 62.1084 43.4788 62.0938 43.4642C62.0792 43.435 62.0792 43.3912 62.0646 43.362C62.0646 43.3474 62.0646 43.3474 62.05 43.3328C62.05 43.3182 62.0354 43.3036 62.0354 43.289C62.0208 43.2306 62.0062 43.1868 62.0062 43.1868C66.43 39.8726 68.8536 35.3904 64.1378 27.4918Z" fill="white" stroke="white" stroke-width="10" stroke-miterlimit="10" />
	<path d="M18.5128 51.0854C18.5128 51.0854 9.81121 55.2318 6.54081 37.2884C3.27041 19.345 32.485 11.607 36.3248 11.3734L42.5882 11.5778C42.5882 11.5778 52.5454 13.9138 54.7938 19.4764C54.7938 19.4764 59.3928 19.6078 64.1232 27.5064C68.8536 35.405 66.4154 39.8872 62.0208 43.2014C62.0208 43.2014 63.8458 47.8734 58.8672 53.0564C53.8886 58.2394 50.4576 56.356 50.4576 56.356L52.6184 60.8966L49.9028 61.6412C49.9028 61.6412 46.8952 58.6336 44.895 56.6918C42.8948 54.75 41.2888 54.1952 38.3542 52.8228C38.3542 52.8228 39.4054 53.9908 32.9376 55.7574C26.4844 57.5094 18.5128 51.0854 18.5128 51.0854Z" fill="#206494" />
	<path d="M55.6114 20.1042C56.5458 20.9218 57.1006 21.4182 56.5166 22.9366C56.1954 23.7542 54.239 24.2068 52.633 24.3528C52.4578 24.0024 52.1074 23.7688 51.6986 23.7688C51.1292 23.7688 50.662 24.236 50.662 24.8054C50.662 25.3748 51.1292 25.842 51.6986 25.842C52.1512 25.842 52.5454 25.55 52.6768 25.1412C54.1368 25.0098 56.721 24.5718 57.2466 23.214C57.889 21.5496 57.378 20.6882 56.648 19.9728C55.7866 19.5932 55.188 19.491 54.9252 19.4618C55.1588 19.6954 55.3924 19.8998 55.6114 20.1042Z" fill="#76D3E8" />
	<path d="M62.2544 44.0482C62.196 43.6832 62.123 43.4204 62.0792 43.289C61.3492 43.3474 59.2322 43.3766 57.67 43.0116C56.1078 42.6466 54.8668 41.61 54.2244 40.9822C54.2536 40.88 54.2828 40.7632 54.2828 40.6464C54.2828 40.077 53.8156 39.6098 53.2462 39.6098C52.6768 39.6098 52.2096 40.077 52.2096 40.6464C52.2096 41.2158 52.6768 41.683 53.2462 41.683C53.4214 41.683 53.582 41.6392 53.7134 41.5662C54.4288 42.2524 55.772 43.3474 57.4948 43.7562C58.5752 44.019 59.9184 44.092 60.955 44.092C61.4952 44.092 61.977 44.0628 62.2544 44.0482Z" fill="#76D3E8" />
	<path d="M39.6974 40.4566C39.2302 40.4566 38.836 40.7778 38.7046 41.2012C37.4636 41.5078 35.843 41.5954 34.0034 40.0332C33.0544 39.2302 32.2514 37.376 31.9448 36.6022C32.266 36.427 32.4996 36.0912 32.4996 35.697C32.4996 35.1276 32.0324 34.6604 31.463 34.6604C30.8936 34.6604 30.4264 35.1276 30.4264 35.697C30.4264 36.1496 30.733 36.5438 31.1418 36.6752C31.39 37.3322 32.2952 39.6098 33.507 40.6318C34.7918 41.7122 35.989 42.0918 37.0548 42.1502C37.0548 42.1648 37.0402 42.1648 37.0402 42.1794C36.5292 43.2452 36.0328 44.238 33.7406 44.311C32.0616 44.3548 30.3388 43.1868 30.3242 43.1722L29.8716 43.8146C29.1416 44.5884 28.0904 44.4424 26.0318 43.4058C25.2288 42.997 24.6594 42.2962 24.3236 41.7268C24.4842 41.5516 24.5864 41.3034 24.5864 41.0552C24.5864 40.4858 24.1192 40.0186 23.5498 40.0186C22.9804 40.0186 22.5132 40.4858 22.5132 41.0552C22.5132 41.6246 22.9804 42.0918 23.5498 42.0918C23.579 42.0918 23.5936 42.0918 23.6228 42.0772C24.017 42.7342 24.674 43.5956 25.6814 44.092C25.988 44.2526 26.3092 44.3986 26.6304 44.5446C26.5136 45.771 25.4478 47.6836 23.2432 49.4356C21.9146 50.5014 18.5128 51.0562 18.4836 51.0562V51.0708C18.5274 51.0562 18.542 51.0416 18.542 51.0416C18.542 51.0416 18.8486 51.2898 19.3888 51.6694C20.5422 51.4212 22.6592 50.881 23.725 50.0342C25.7544 48.4282 27.1268 46.428 27.375 44.8074C27.8276 44.9534 28.2802 45.0556 28.7036 45.0556C29.3898 45.0556 30.0176 44.822 30.5432 44.1796C31.2586 44.5592 32.412 45.0556 33.6092 45.0556C33.653 45.0556 33.6968 45.0556 33.726 45.0556C36.5 44.9826 37.1716 43.5956 37.7118 42.486C37.7848 42.3546 37.8432 42.2232 37.9016 42.0918C38.2082 42.0626 38.5002 42.0042 38.763 41.9458C38.9382 42.267 39.274 42.486 39.6682 42.486C40.2376 42.486 40.7048 42.0188 40.7048 41.4494C40.734 40.9238 40.2668 40.4566 39.6974 40.4566Z" fill="#76D3E8" />
	<path d="M35.3174 51.9468C34.9378 51.6986 34.529 51.1292 34.2224 50.6182C34.3684 50.443 34.4706 50.2094 34.4706 49.9612C34.4706 49.3918 34.0034 48.9246 33.434 48.9246C32.8646 48.9246 32.3974 49.3918 32.3974 49.9612C32.3974 50.5306 32.8646 50.9978 33.434 50.9978C33.4632 50.9978 33.4924 50.9978 33.5362 50.9832C33.872 51.5526 34.3538 52.2534 34.894 52.6038C35.8868 53.2608 36.9818 53.6696 37.9162 53.7572C38.3688 53.4068 38.4418 53.144 38.4418 52.9834C37.6826 53.0272 36.5 52.7352 35.3174 51.9468Z" fill="#76D3E8" />
	<path d="M36.6898 19.6516C36.1204 19.6516 35.6532 20.1188 35.6532 20.6882C35.6532 20.8634 35.697 21.0386 35.7846 21.1846C35.332 21.4766 34.6166 21.6956 33.7698 21.681C33.0982 21.6664 30.8352 21.4328 30.1782 18.8486C30.8498 18.3814 31.3024 17.7536 31.4046 17.155C31.4192 17.155 31.4338 17.155 31.4484 17.155C32.0178 17.155 32.485 16.6878 32.485 16.1184C32.485 15.549 32.0178 15.0818 31.4484 15.0818C30.879 15.0818 30.4118 15.549 30.4118 16.1184C30.4118 16.3958 30.5286 16.6586 30.7038 16.8338L30.6308 16.8484C30.6892 17.3448 30.0468 18.1624 28.9956 18.5858C28.4554 18.8048 26.6012 19.3596 25.2142 17.4908C24.5572 16.6148 24.1046 15.4906 23.9586 15.0964C23.725 15.1986 23.4768 15.3008 23.2286 15.4176C23.4038 15.8848 23.871 17.0236 24.5718 17.9726C25.3894 19.0676 26.499 19.6516 27.6962 19.6516C28.2072 19.6516 28.7474 19.5494 29.273 19.3304C29.3314 19.3012 29.3898 19.272 29.4482 19.2574C30.0322 21.243 31.6236 22.4402 33.7406 22.4694C33.7698 22.4694 33.799 22.4694 33.8282 22.4694C34.8794 22.4694 35.8138 22.1628 36.4124 21.681C36.5 21.6956 36.5876 21.7102 36.6752 21.7102C37.2446 21.7102 37.7118 21.243 37.7118 20.6736C37.7264 20.1188 37.2592 19.6516 36.6898 19.6516Z" fill="#76D3E8" />
	<path d="M15.0088 28.032C14.5854 28.032 14.2204 28.2802 14.0598 28.6452C13.3882 28.7474 12.5414 28.6306 11.534 27.5794C10.7748 26.791 10.0886 24.7908 10.0594 24.6886C9.85499 24.9222 9.66519 25.1704 9.48999 25.4186C9.76739 26.134 10.3222 27.448 10.9646 28.1196C11.9866 29.1854 12.9064 29.4628 13.6656 29.4628C13.797 29.4628 13.9138 29.4482 14.0306 29.4336C14.1766 29.8278 14.5562 30.1052 14.9942 30.1052C15.5636 30.1052 16.0308 29.638 16.0308 29.0686C16.0454 28.4992 15.5782 28.032 15.0088 28.032Z" fill="#76D3E8" />
	<path d="M16.2498 37.814C15.6804 37.814 15.2132 38.2812 15.2132 38.8506C15.2132 38.909 15.2278 38.9674 15.2278 39.0258C14.4394 39.274 13.4174 39.4346 12.5414 38.6316C12.0158 38.1498 11.7968 37.303 11.6946 36.7774C11.9282 36.5876 12.0742 36.2956 12.0742 35.9744C12.0742 35.405 11.607 34.9378 11.0376 34.9378C10.4682 34.9378 10.001 35.405 10.001 35.9744C10.001 36.5146 10.4098 36.9526 10.9354 36.9964C11.0522 37.5804 11.315 38.471 11.8698 39.0696C11.4756 39.8434 10.8186 40.9822 9.40242 40.9822C9.38782 40.9822 9.37322 40.9822 9.37322 40.9822C8.32202 40.9676 7.18322 39.8872 7.16862 39.8726L7.12482 39.931C7.21242 40.3252 7.31462 40.7048 7.41682 41.0552C7.92782 41.4056 8.64322 41.756 9.37322 41.7706C9.38782 41.7706 9.40242 41.7706 9.41702 41.7706C11.1982 41.7706 12.0596 40.4274 12.5122 39.566C13.0378 39.8872 13.578 40.004 14.089 40.004C14.6876 40.004 15.2424 39.8434 15.6804 39.6974C15.841 39.8142 16.0454 39.8726 16.2644 39.8726C16.8338 39.8726 17.301 39.4054 17.301 38.836C17.2864 38.2812 16.8192 37.814 16.2498 37.814Z" fill="#76D3E8" />
</svg>
