<svg width="71" height="71" viewBox="0 0 71 71" fill="none" xmlns="http://www.w3.org/2000/svg">
	<path d="M35.5 68.7813C39.2037 68.7813 42.2062 67.0106 42.2062 64.8263C42.2062 62.6421 39.2037 60.8714 35.5 60.8714C31.7963 60.8714 28.7938 62.6421 28.7938 64.8263C28.7938 67.0106 31.7963 68.7813 35.5 68.7813Z" fill="#424242" />
	<path d="M35.5 2.21875C23.8072 2.21875 14.322 10.9107 14.322 21.6273C14.322 24.4229 15.1652 27.4127 16.4021 30.0474C18.1383 33.7527 20.0298 36.4929 20.5845 37.5024C22.1265 40.3091 21.9046 43.2656 22.3317 45.1183C23.136 48.5795 25.5434 49.8331 35.4945 49.8331C45.4456 49.8331 47.5866 48.6406 48.4797 45.4511C49.0899 43.2823 48.4963 40.9138 50.0328 38.1126C50.5875 37.1031 52.8451 33.7583 54.5868 30.0474C55.8238 27.4127 56.6669 24.4229 56.6669 21.6273C56.678 10.9107 47.1928 2.21875 35.5 2.21875Z" fill="#FFD600" />
	<path d="M35.5 50.2491C42.2212 50.2491 47.6699 49.1415 47.6699 47.7752C47.6699 46.4089 42.2212 45.3013 35.5 45.3013C28.7788 45.3013 23.3302 46.4089 23.3302 47.7752C23.3302 49.1415 28.7788 50.2491 35.5 50.2491Z" fill="#B26500" />
	<path d="M35.5 50.2491C42.2212 50.2491 47.6699 49.1415 47.6699 47.7752C47.6699 46.4089 42.2212 45.3013 35.5 45.3013C28.7788 45.3013 23.3302 46.4089 23.3302 47.7752C23.3302 49.1415 28.7788 50.2491 35.5 50.2491Z" fill="#B26500" />
	<path d="M35.5 48.9179C40.3985 48.9179 44.3695 48.4063 44.3695 47.7752C44.3695 47.1442 40.3985 46.6326 35.5 46.6326C30.6015 46.6326 26.6306 47.1442 26.6306 47.7752C26.6306 48.4063 30.6015 48.9179 35.5 48.9179Z" fill="#FFA000" />
	<path d="M29.5648 31.4896C29.2209 32.3549 28.3279 34.1355 28.7938 34.9342C29.8755 36.7924 32.4548 37.458 32.4548 39.1665C32.4548 41.7735 30.5577 50.2214 30.5577 50.2214" stroke="#B26500" stroke-width="12.5" stroke-miterlimit="10" />
	<path d="M41.0635 31.179C41.0635 31.179 42.306 33.8415 41.7791 35.0341C41.3852 35.9216 39.0167 37.3527 38.7117 37.5912C37.2972 38.7005 39.1776 50.227 39.1776 50.227" stroke="#B26500" stroke-width="12.5" stroke-miterlimit="10" />
	<path d="M29.5649 31.4896C31.473 27.7177 32.4548 19.109 30.0308 19.5472C25.9427 20.2849 30.9793 34.4294 33.4588 32.8042C35.9382 31.179 39.0112 19.5749 35.2393 19.5305C31.4674 19.4862 35.4945 34.3185 38.0571 32.6711C40.0817 31.3676 45.024 19.5472 40.9637 19.5472C37.508 19.5472 41.0691 31.179 41.0691 31.179" stroke="white" stroke-width="12.5" stroke-miterlimit="10" />
	<path d="M47.6421 48.2911C47.6421 48.2911 44.4471 49.8331 35.5 49.8331C26.5529 49.8331 23.3579 48.2911 23.3579 48.2911C23.3579 48.2911 23.1582 51.1422 23.8183 52.4346C24.6115 53.9877 25.2217 54.5258 25.2217 54.5258L25.5545 56.1066L25.4213 56.5227C25.2494 57.0663 25.3714 57.6653 25.7542 58.0924L26.0426 58.4141L26.3643 59.934L26.2534 60.2391C26.0426 60.8215 26.1868 61.4705 26.6195 61.9142L26.8302 62.1305L27.091 63.373C27.091 63.373 28.4111 66.1909 35.5 66.1909C42.5889 66.1909 43.9091 63.373 43.9091 63.373L43.9313 63.2677L44.0755 63.1234C44.3639 62.8405 44.4582 62.419 44.3195 62.0418L44.2363 61.8255L44.5803 60.1836L45.1849 59.5457C45.4844 59.2295 45.551 58.7636 45.3568 58.3753L45.0795 57.8262L45.4289 56.1787L45.6508 56.0068C45.9781 55.6463 45.9836 55.1027 45.8394 54.731C45.7285 54.437 45.8172 54.1042 46.0446 53.8879C46.3941 53.5551 46.8434 53.0503 47.1762 52.4235C47.8585 51.1533 47.6421 48.2911 47.6421 48.2911Z" fill="#82AEC0" />
	<path d="M25.2216 54.5258L25.5212 56.1177C28.7495 56.1011 33.0594 56.262 41.3298 54.9473C42.8219 54.609 44.6135 53.9378 42.6333 54.2152C42.6333 54.2096 35.0396 54.9363 25.2216 54.5258Z" fill="#2F7889" />
	<path d="M26.331 59.9451C29.9032 59.8841 37.2029 59.5291 45.0462 57.8262L45.3956 56.1787C37.1918 58.0425 29.4761 58.3753 26.0093 58.4197L26.331 59.9451Z" fill="#2F7889" />
	<path d="M44.547 60.1781C37.2861 61.7534 30.4912 62.1583 26.8136 62.247L27.0521 63.3786C27.0521 63.3786 27.1686 66.8898 35.4612 66.8898C43.7538 66.8898 43.8702 63.3786 43.8702 63.3786C43.8702 63.3786 40.3313 64.3881 35.977 63.8945C35.9311 63.8948 35.8856 63.8861 35.8431 63.8689C35.8006 63.8517 35.7618 63.8263 35.7291 63.7941C35.6631 63.7291 35.6255 63.6405 35.6248 63.5478C35.6241 63.4551 35.6602 63.3659 35.7252 63.2999C35.7902 63.2338 35.8788 63.1963 35.9715 63.1956C38.573 62.8516 41.6792 62.3413 44.2031 61.8199L44.547 60.1781Z" fill="#2F7889" />
	<path d="M23.3967 48.2911C23.3967 48.2911 26.98 49.8331 35.4667 49.8331C43.9534 49.8331 47.6033 48.2911 47.6033 48.2911" stroke="#82AEC0" stroke-width="24.9813" stroke-miterlimit="10" stroke-linecap="round" />
	<path d="M27.6678 5.72438C29.8366 5.19188 32.1053 5.45813 33.6584 7.34407C34.0966 7.87657 34.435 8.50891 34.5127 9.19672C34.668 10.5224 33.847 11.776 32.8708 12.6968C30.0863 15.326 26.1313 16.6018 24.3341 20.2295C23.9126 21.0781 23.5798 21.9934 22.9363 22.6867C22.2929 23.3801 21.2224 23.8016 20.3848 23.3579C19.941 23.1249 19.6359 22.6867 19.3863 22.2485C17.811 19.4418 17.9275 15.8641 19.3142 12.9575C20.8396 9.7736 24.1844 6.5786 27.6678 5.72438Z" fill="#FFFF8D" />
	<path d="M25.7652 50.9924C25.2771 50.7705 25.4713 50.0383 26.0038 50.0772C27.7898 50.2158 30.8295 50.3878 34.851 50.3878C39.0888 50.3878 42.8163 50.0716 44.9907 49.8387C45.5288 49.7832 45.734 50.5209 45.2403 50.7483C43.5652 51.536 40.4977 52.4346 35.2393 52.4346C30.1084 52.4346 27.2795 51.6747 25.7652 50.9924Z" fill="#FFD600" />
	<path d="M28.8105 56.5948C28.4388 56.7279 28.0561 56.9109 27.8675 57.2548C27.8009 57.3824 27.7621 57.5266 27.7898 57.6709C27.8342 57.8816 28.0284 58.0314 28.2225 58.1257C28.6108 58.3143 29.049 58.3642 29.4761 58.3698C30.3581 58.3809 31.2345 58.2144 32.1053 58.048C32.366 57.9981 32.6323 57.9482 32.8652 57.8206C33.0982 57.693 33.2979 57.4767 33.3367 57.216C33.3922 56.8666 33.1426 56.5282 32.8375 56.3618C31.7836 55.7794 29.8755 56.212 28.8105 56.5948Z" fill="#94D1E0" />
	<path d="M29.6369 60.2502C29.2653 60.3833 28.8826 60.5663 28.694 60.9102C28.6274 61.0378 28.5886 61.182 28.6163 61.3263C28.6607 61.537 28.8548 61.6868 29.049 61.7811C29.4373 61.9697 29.8755 62.0196 30.3026 62.0252C31.1845 62.0363 32.0609 61.8699 32.9318 61.7034C33.1925 61.6535 33.4587 61.6036 33.6917 61.476C33.9247 61.3484 34.1244 61.1321 34.1632 60.8714C34.2187 60.522 33.9691 60.1836 33.664 60.0172C32.6101 59.4403 30.6964 59.873 29.6369 60.2502Z" fill="#94D1E0" />
	<path d="M27.7399 46.7047C28.2447 46.7546 28.7772 46.7102 29.2043 46.4384C29.6314 46.1666 29.9032 45.6119 29.7312 45.1349C29.6425 44.8853 29.4483 44.6856 29.2598 44.497C28.8437 44.0866 28.4277 43.6761 28.0173 43.2656C27.5569 42.8052 27.0965 42.3504 26.5973 41.9344C25.8262 41.2909 24.789 40.6863 23.7739 41.1578C22.9086 41.5572 22.7033 42.3448 23.0861 43.1713C23.9015 44.9075 25.7985 46.505 27.7399 46.7047Z" fill="#FFFF8D" />
</svg>
