<svg width="69" height="24" viewBox="0 0 69 24" fill="none" xmlns="http://www.w3.org/2000/svg">
	<path d="M18.0956 0.695999L10.8316 14.584V23H7.91963V14.584L0.623625 0.695999H3.85563L9.35963 11.992L14.8636 0.695999H18.0956ZM68.5099 0.855999V23H65.5979V6.488L58.2379 23H56.1899L48.7979 6.456V23H45.8859V0.855999H49.0219L57.2139 19.16L65.4059 0.855999H68.5099Z" fill="black" />
	<path d="M20.0791 11.832C20.0791 9.656 20.5698 7.704 21.5511 5.976C22.5325 4.22667 23.8658 2.86133 25.5511 1.88C27.2578 0.898666 29.1458 0.407999 31.2151 0.407999C33.6471 0.407999 35.7698 0.994666 37.5831 2.168C39.3965 3.34133 40.7191 5.00533 41.5511 7.16H38.0631C37.4445 5.816 36.5485 4.78133 35.3751 4.056C34.2231 3.33067 32.8365 2.968 31.2151 2.968C29.6578 2.968 28.2605 3.33067 27.0231 4.056C25.7858 4.78133 24.8151 5.816 24.1111 7.16C23.4071 8.48267 23.0551 10.04 23.0551 11.832C23.0551 13.6027 23.4071 15.16 24.1111 16.504C24.8151 17.8267 25.7858 18.8507 27.0231 19.576C28.2605 20.3013 29.6578 20.664 31.2151 20.664C32.8365 20.664 34.2231 20.312 35.3751 19.608C36.5485 18.8827 37.4445 17.848 38.0631 16.504H41.5511C40.7191 18.6373 39.3965 20.2907 37.5831 21.464C35.7698 22.616 33.6471 23.192 31.2151 23.192C29.1458 23.192 27.2578 22.712 25.5511 21.752C23.8658 20.7707 22.5325 19.416 21.5511 17.688C20.5698 15.96 20.0791 14.008 20.0791 11.832Z" fill="#57BD34" />
</svg>
