<svg width="73" height="73" viewBox="0 0 73 73" fill="none" xmlns="http://www.w3.org/2000/svg">
	<path d="M64.1378 27.4918C61.2616 22.6884 58.4292 20.7466 56.648 19.9728C56.5458 19.929 56.4436 19.8852 56.356 19.856C56.3414 19.856 56.3414 19.856 56.3268 19.8414C56.2392 19.8122 56.1516 19.7684 56.064 19.7538C56.0494 19.7538 56.0494 19.7538 56.0348 19.7392C55.9472 19.71 55.8596 19.6808 55.7866 19.6662C55.7866 19.6662 55.7866 19.6662 55.772 19.6662C55.699 19.637 55.626 19.6224 55.553 19.6078C55.5384 19.6078 55.5384 19.6078 55.5238 19.6078C55.4654 19.5932 55.3924 19.5786 55.334 19.564H55.3194C55.261 19.5494 55.2026 19.5348 55.1588 19.5348C55.115 19.5202 55.0712 19.5202 55.0274 19.5056C55.0274 19.5056 55.0274 19.5056 55.0128 19.5056C54.969 19.5056 54.9398 19.491 54.9106 19.491C54.823 19.4764 54.7792 19.4764 54.7792 19.4764C52.5308 13.9138 42.5736 11.5778 42.5736 11.5778L36.3102 11.3734C34.8356 11.461 29.6088 12.6582 23.9294 15.1256C23.6958 15.2278 23.4476 15.33 23.214 15.4468C18.4106 17.6076 13.3736 20.659 10.0594 24.7032C9.85499 24.9368 9.66519 25.185 9.48999 25.4332C7.00799 28.7474 5.70859 32.6894 6.54079 37.303C6.71599 38.252 6.90579 39.128 7.09559 39.9456C10.5996 54.4434 18.1186 51.2606 18.4836 51.1C18.4982 51.1 18.4982 51.1 18.4982 51.1C18.4982 51.1 26.4698 57.524 32.9376 55.7574C35.8722 54.9544 37.2446 54.2828 37.887 53.7718C38.2812 53.4652 38.398 53.2316 38.4126 53.0564C38.4126 53.0272 38.4126 53.0126 38.4126 52.998C38.398 52.8812 38.3542 52.8228 38.3542 52.8228C41.2888 54.1952 42.9094 54.75 44.895 56.6918C46.8952 58.6336 49.9028 61.6412 49.9028 61.6412L52.6184 60.8966L50.4576 56.356C50.4576 56.356 53.9032 58.254 58.8672 53.0564C62.561 49.202 62.5026 45.625 62.2252 44.0482C62.2252 44.0044 62.2106 43.9752 62.2106 43.9314C62.2106 43.9168 62.2106 43.9168 62.2106 43.9022C62.1814 43.7854 62.1668 43.6832 62.1376 43.5956C62.1376 43.581 62.1376 43.5664 62.123 43.5664C62.123 43.5372 62.1084 43.5226 62.1084 43.4934C62.1084 43.4788 62.1084 43.4788 62.0938 43.4642C62.0792 43.435 62.0792 43.3912 62.0646 43.362C62.0646 43.3474 62.0646 43.3474 62.05 43.3328C62.05 43.3182 62.0354 43.3036 62.0354 43.289C62.0208 43.2306 62.0062 43.1868 62.0062 43.1868C66.43 39.8726 68.8536 35.3904 64.1378 27.4918Z" fill="white" stroke="white" stroke-width="10" stroke-miterlimit="10" />
	<path d="M29.8141 34.5107C29.8141 34.5107 28.7264 35.029 28.3176 32.7861C27.9088 30.5431 31.5606 29.5759 32.0406 29.5467L32.8235 29.5722C32.8235 29.5722 34.0682 29.8642 34.3492 30.5596C34.3492 30.5596 34.9241 30.576 35.5154 31.5633C36.1067 32.5506 35.8019 33.1109 35.2526 33.5252C35.2526 33.5252 35.4807 34.1092 34.8584 34.7571C34.2361 35.4049 33.8072 35.1695 33.8072 35.1695L34.0773 35.7371L33.7378 35.8302C33.7378 35.8302 33.3619 35.4542 33.1119 35.2115C32.8618 34.9688 32.6611 34.8994 32.2943 34.7279C32.2943 34.7279 32.4257 34.8739 31.6172 35.0947C30.8105 35.3137 29.8141 34.5107 29.8141 34.5107Z" fill="#206494" />
	<path d="M34.4514 30.638C34.5682 30.7402 34.6376 30.8023 34.5646 30.9921C34.5244 31.0943 34.2799 31.1508 34.0791 31.1691C34.0572 31.1253 34.0134 31.0961 33.9623 31.0961C33.8911 31.0961 33.8327 31.1545 33.8327 31.2257C33.8327 31.2968 33.8911 31.3552 33.9623 31.3552C34.0189 31.3552 34.0682 31.3187 34.0846 31.2676C34.2671 31.2512 34.5901 31.1965 34.6558 31.0267C34.7361 30.8187 34.6722 30.711 34.581 30.6216C34.4733 30.5741 34.3985 30.5614 34.3656 30.5577C34.3948 30.5869 34.424 30.6125 34.4514 30.638Z" fill="#76D3E8" />
	<path d="M35.2818 33.631C35.2745 33.5854 35.2654 33.5526 35.2599 33.5361C35.1687 33.5434 34.904 33.5471 34.7088 33.5015C34.5135 33.4558 34.3584 33.3263 34.2781 33.2478C34.2817 33.235 34.2854 33.2204 34.2854 33.2058C34.2854 33.1346 34.227 33.0762 34.1558 33.0762C34.0846 33.0762 34.0262 33.1346 34.0262 33.2058C34.0262 33.277 34.0846 33.3354 34.1558 33.3354C34.1777 33.3354 34.1978 33.3299 34.2142 33.3208C34.3036 33.4066 34.4715 33.5434 34.6869 33.5945C34.8219 33.6274 34.9898 33.6365 35.1194 33.6365C35.1869 33.6365 35.2471 33.6329 35.2818 33.631Z" fill="#76D3E8" />
	<path d="M32.4622 33.1821C32.4038 33.1821 32.3545 33.2222 32.3381 33.2752C32.183 33.3135 31.9804 33.3244 31.7504 33.1292C31.6318 33.0288 31.5314 32.797 31.4931 32.7003C31.5333 32.6784 31.5625 32.6364 31.5625 32.5871C31.5625 32.516 31.5041 32.4576 31.4329 32.4576C31.3617 32.4576 31.3033 32.516 31.3033 32.5871C31.3033 32.6437 31.3416 32.693 31.3927 32.7094C31.4238 32.7915 31.5369 33.0762 31.6884 33.204C31.849 33.339 31.9986 33.3865 32.1319 33.3938C32.1319 33.3956 32.13 33.3956 32.13 33.3974C32.0662 33.5306 32.0041 33.6547 31.7176 33.6639C31.5077 33.6694 31.2924 33.5234 31.2905 33.5215L31.234 33.6018C31.1427 33.6986 31.0113 33.6803 30.754 33.5507C30.6536 33.4996 30.5824 33.412 30.5405 33.3408C30.5605 33.3189 30.5733 33.2879 30.5733 33.2569C30.5733 33.1857 30.5149 33.1273 30.4437 33.1273C30.3726 33.1273 30.3142 33.1857 30.3142 33.2569C30.3142 33.3281 30.3726 33.3865 30.4437 33.3865C30.4474 33.3865 30.4492 33.3865 30.4529 33.3847C30.5021 33.4668 30.5843 33.5745 30.7102 33.6365C30.7485 33.6566 30.7887 33.6748 30.8288 33.6931C30.8142 33.8464 30.681 34.0855 30.4054 34.3045C30.2393 34.4377 29.8141 34.507 29.8105 34.507V34.5088C29.8159 34.507 29.8178 34.5052 29.8178 34.5052C29.8178 34.5052 29.8561 34.5362 29.9236 34.5837C30.0678 34.5526 30.3324 34.4851 30.4656 34.3793C30.7193 34.1785 30.8909 33.9285 30.9219 33.7259C30.9785 33.7442 31.035 33.757 31.088 33.757C31.1737 33.757 31.2522 33.7278 31.3179 33.6475C31.4073 33.6949 31.5515 33.757 31.7012 33.757C31.7066 33.757 31.7121 33.757 31.7158 33.757C32.0625 33.7478 32.1465 33.5745 32.214 33.4358C32.2231 33.4193 32.2304 33.4029 32.2377 33.3865C32.276 33.3828 32.3125 33.3755 32.3454 33.3682C32.3673 33.4084 32.4093 33.4358 32.4585 33.4358C32.5297 33.4358 32.5881 33.3773 32.5881 33.3062C32.5918 33.2405 32.5334 33.1821 32.4622 33.1821Z" fill="#76D3E8" />
	<path d="M31.9147 34.6184C31.8672 34.5873 31.8161 34.5162 31.7778 34.4523C31.796 34.4304 31.8088 34.4012 31.8088 34.3702C31.8088 34.299 31.7504 34.2406 31.6792 34.2406C31.6081 34.2406 31.5497 34.299 31.5497 34.3702C31.5497 34.4413 31.6081 34.4997 31.6792 34.4997C31.6829 34.4997 31.6865 34.4997 31.692 34.4979C31.734 34.5691 31.7942 34.6567 31.8617 34.7005C31.9858 34.7826 32.1227 34.8337 32.2395 34.8447C32.2961 34.8009 32.3052 34.768 32.3052 34.7479C32.2103 34.7534 32.0625 34.7169 31.9147 34.6184Z" fill="#76D3E8" />
	<path d="M32.0862 30.5814C32.015 30.5814 31.9566 30.6398 31.9566 30.711C31.9566 30.7329 31.9621 30.7548 31.9731 30.7731C31.9165 30.8096 31.8271 30.8369 31.7212 30.8351C31.6373 30.8333 31.3544 30.8041 31.2723 30.4811C31.3562 30.4227 31.4128 30.3442 31.4256 30.2694C31.4274 30.2694 31.4292 30.2694 31.431 30.2694C31.5022 30.2694 31.5606 30.211 31.5606 30.1398C31.5606 30.0686 31.5022 30.0102 31.431 30.0102C31.3599 30.0102 31.3015 30.0686 31.3015 30.1398C31.3015 30.1745 31.3161 30.2073 31.338 30.2292L31.3288 30.231C31.3361 30.2931 31.2558 30.3953 31.1244 30.4482C31.0569 30.4756 30.8251 30.5449 30.6518 30.3113C30.5696 30.2018 30.5131 30.0613 30.4948 30.012C30.4656 30.0248 30.4346 30.0376 30.4036 30.0522C30.4255 30.1106 30.4839 30.2529 30.5715 30.3716C30.6737 30.5084 30.8124 30.5814 30.962 30.5814C31.0259 30.5814 31.0934 30.5687 31.1591 30.5413C31.1664 30.5376 31.1737 30.534 31.181 30.5322C31.254 30.7804 31.4529 30.93 31.7176 30.9337C31.7212 30.9337 31.7249 30.9337 31.7285 30.9337C31.8599 30.9337 31.9767 30.8953 32.0515 30.8351C32.0625 30.8369 32.0734 30.8388 32.0844 30.8388C32.1556 30.8388 32.214 30.7804 32.214 30.7092C32.2158 30.6398 32.1574 30.5814 32.0862 30.5814Z" fill="#76D3E8" />
	<path d="M29.3761 31.629C29.3232 31.629 29.2776 31.66 29.2575 31.7056C29.1736 31.7184 29.0677 31.7038 28.9418 31.5724C28.8469 31.4739 28.7611 31.2238 28.7575 31.2111C28.7319 31.2403 28.7082 31.2713 28.6863 31.3023C28.721 31.3917 28.7903 31.556 28.8706 31.6399C28.9984 31.7732 29.1133 31.8078 29.2082 31.8078C29.2247 31.8078 29.2393 31.806 29.2539 31.8042C29.2721 31.8535 29.3196 31.8881 29.3743 31.8881C29.4455 31.8881 29.5039 31.8297 29.5039 31.7586C29.5057 31.6874 29.4473 31.629 29.3761 31.629Z" fill="#76D3E8" />
	<path d="M29.5312 32.8518C29.4601 32.8518 29.4017 32.9102 29.4017 32.9813C29.4017 32.9886 29.4035 32.9959 29.4035 33.0032C29.305 33.0343 29.1772 33.0543 29.0677 32.954C29.002 32.8937 28.9746 32.7879 28.9618 32.7222C28.9911 32.6985 29.0093 32.662 29.0093 32.6218C29.0093 32.5506 28.9509 32.4922 28.8797 32.4922C28.8085 32.4922 28.7501 32.5506 28.7501 32.6218C28.7501 32.6893 28.8013 32.7441 28.867 32.7496C28.8816 32.8226 28.9144 32.9339 28.9838 33.0087C28.9345 33.1054 28.8524 33.2478 28.6753 33.2478C28.6735 33.2478 28.6717 33.2478 28.6717 33.2478C28.5403 33.246 28.3979 33.1109 28.3961 33.1091L28.3906 33.1164C28.4016 33.1657 28.4143 33.2131 28.4271 33.2569C28.491 33.3007 28.5804 33.3445 28.6717 33.3463C28.6735 33.3463 28.6753 33.3463 28.6772 33.3463C28.8998 33.3463 29.0075 33.1784 29.064 33.0708C29.1297 33.1109 29.1973 33.1255 29.2612 33.1255C29.336 33.1255 29.4053 33.1054 29.4601 33.0872C29.4801 33.1018 29.5057 33.1091 29.5331 33.1091C29.6043 33.1091 29.6626 33.0507 29.6626 32.9795C29.6608 32.9102 29.6024 32.8518 29.5312 32.8518Z" fill="#76D3E8" />
	<path d="M58.3952 64H5.60463C4.65638 64 3.88788 63.2314 3.88788 62.2832V1.71675C3.88775 0.768625 4.65638 0 5.60463 0H58.3954C59.3434 0 60.1121 0.768625 60.1121 1.71675V33.259C60.1121 34.2072 59.3434 34.9757 58.3954 34.9757C57.4474 34.9757 56.6786 34.2071 56.6786 33.259V3.43362H7.32138V60.5664H56.6785V43.6741C56.6785 42.7259 57.4473 41.9574 58.3952 41.9574C59.3433 41.9574 60.112 42.726 60.112 43.6741V62.2831C60.112 63.2314 59.3434 64 58.3952 64Z" fill="#507C5C" />
	<path d="M50.8759 10.1261H26.8405V16.9363H50.8759V10.1261Z" fill="#CFF09E" />
	<path d="M50.8766 18.6529H26.8413C25.893 18.6529 25.1245 17.8843 25.1245 16.9361V10.1261C25.1245 9.17788 25.8931 8.40938 26.8413 8.40938H50.8766C51.8246 8.40938 52.5934 9.178 52.5934 10.1261V16.9363C52.5934 17.8843 51.8246 18.6529 50.8766 18.6529ZM28.558 15.2193H49.1598V11.843H28.558V15.2193Z" fill="#507C5C" />
	<path d="M50.8759 28.5952H26.8405V35.4054H50.8759V28.5952Z" fill="#CFF09E" />
	<path d="M50.8766 37.1219H26.8412C25.893 37.1219 25.1245 36.3532 25.1245 35.4051V28.595C25.1245 27.6467 25.8931 26.8783 26.8412 26.8783H50.8766C51.8246 26.8783 52.5934 27.6469 52.5934 28.595V35.4051C52.5934 36.3534 51.8246 37.1219 50.8766 37.1219ZM28.558 33.6884H49.1597V30.3119H28.558V33.6884Z" fill="#507C5C" />
	<path d="M50.8766 55.5907H26.8412C25.893 55.5907 25.1245 54.8221 25.1245 53.874C25.1245 52.9257 25.8931 52.1572 26.8412 52.1572H49.1597V48.7807H26.8412C25.893 48.7807 25.1245 48.0121 25.1245 47.064C25.1245 46.1159 25.8931 45.3472 26.8412 45.3472H50.8766C51.8246 45.3472 52.5934 46.1159 52.5934 47.064V53.8741C52.5934 54.8221 51.8246 55.5907 50.8766 55.5907Z" fill="#507C5C" />
	<path d="M15.6859 11.3196C15.8094 11.3196 15.991 11.2949 16.1811 11.189V18.4777C16.1811 19.1187 16.8206 19.5665 17.736 19.5665C18.6514 19.5665 19.2907 19.1187 19.2907 18.4777V8.6C19.2907 7.91787 18.5562 7.49562 17.8757 7.49562C17.627 7.49562 17.4142 7.54975 17.2474 7.65412L15.1987 8.89575C14.8065 9.13112 14.5815 9.5385 14.5815 10.0134C14.5816 10.6415 15.0039 11.3196 15.6859 11.3196Z" fill="#507C5C" />
	<path d="M14.335 38.02H19.8639C20.4457 38.02 20.9372 37.3721 20.9372 36.605C20.9372 35.8548 20.4457 35.2211 19.8639 35.2211H16.2005C16.3964 34.8735 17.0219 34.4453 17.6301 34.029C19.0257 33.0738 20.9372 31.7653 20.9372 29.5386C20.9372 27.2275 18.8957 25.9804 16.9752 25.9804C15.1072 25.9804 13.1219 27.1459 13.1219 29.3056C13.1219 30.6291 13.8997 30.9071 14.5525 30.9071C15.6026 30.9071 16.1694 30.274 16.1694 29.6784C16.1694 29.4751 16.1694 28.8569 16.9909 28.8569C17.7674 28.8569 17.8279 29.438 17.8279 29.6163C17.8279 30.3763 16.7544 31.1643 15.716 31.9264C14.3491 32.9296 12.9356 33.9674 12.9356 35.4249V36.9314C12.9352 37.6321 13.7629 38.02 14.335 38.02Z" fill="#507C5C" />
	<path d="M19.8387 50.0461C20.3834 49.5119 20.7042 48.6159 20.7042 47.5568C20.7042 46.1178 20.0437 44.4023 16.8974 44.4023C14.2141 44.4023 13.0131 45.9709 13.0131 47.5256C13.0131 48.5385 13.3872 48.8474 14.6144 48.8474C15.5945 48.8474 16.0915 48.434 16.0915 47.6189C16.0915 47.3881 16.0915 47.1701 16.8974 47.1701C17.5 47.1701 17.7032 47.3656 17.7032 47.9449C17.7032 48.9373 17.3202 48.9373 16.8352 48.9373C16.1922 48.9373 15.793 49.4259 15.793 50.2125C15.793 50.9991 16.1924 51.4878 16.8352 51.4878C17.7147 51.4878 17.983 51.6979 17.983 52.3869V52.682C17.983 53.5099 17.7496 53.7365 16.8975 53.7365C15.8586 53.7365 15.8586 53.3459 15.8586 53.179C15.8586 52.2238 15.2247 52.028 14.273 52.028C13.4977 52.028 12.7804 52.1769 12.7804 53.2565C12.7804 54.8356 14.0445 56.5353 16.82 56.5353C19.5352 56.5353 21.0927 55.1308 21.0927 52.6819V52.3868C21.0925 51.3384 20.6616 50.5395 19.8387 50.0461Z" fill="#507C5C" />
</svg>
